<svg xmlns="http://www.w3.org/2000/svg" width="760" height="300">
<rect width="100%" height="100%" fill="white"/>
<text x="10" y="18" font-size="13">Delta catastrophic risk (monotone - CABDI) by overload curvature</text>
<line x1="35" y1="265" x2="725" y2="265" stroke="#333"/>
<line x1="35" y1="35" x2="35" y2="265" stroke="#333"/>
<circle cx="35.0" cy="121.0" r="5" fill="#d62728" />
<circle cx="35.0" cy="52.6" r="5" fill="#d62728" />
<circle cx="35.0" cy="69.2" r="5" fill="#d62728" />
<circle cx="35.0" cy="35.0" r="5" fill="#d62728" />
<circle cx="35.0" cy="187.7" r="5" fill="#d62728" />
<circle cx="35.0" cy="235.6" r="5" fill="#d62728" />
<circle cx="35.0" cy="163.9" r="5" fill="#d62728" />
<circle cx="35.0" cy="112.7" r="5" fill="#d62728" />
<circle cx="725.0" cy="124.9" r="5" fill="#d62728" />
<circle cx="725.0" cy="96.4" r="5" fill="#d62728" />
<circle cx="725.0" cy="138.5" r="5" fill="#d62728" />
<circle cx="725.0" cy="78.8" r="5" fill="#d62728" />
<circle cx="725.0" cy="247.5" r="5" fill="#d62728" />
<circle cx="725.0" cy="204.8" r="5" fill="#d62728" />
<circle cx="725.0" cy="223.8" r="5" fill="#d62728" />
<circle cx="725.0" cy="265.0" r="5" fill="#d62728" />
</svg>