<svg xmlns="http://www.w3.org/2000/svg" width="820" height="320">
<rect width="100%" height="100%" fill="white"/>
<text x="10" y="18" font-size="13">Existing catastrophic-risk comparison: delta risk (monotone - CABDI)</text>
<line x1="44" y1="276" x2="776" y2="276" stroke="#333"/>
<line x1="44" y1="44" x2="44" y2="276" stroke="#333"/>
<circle cx="44.0" cy="130.7" r="5" fill="#d62728" />
<circle cx="44.0" cy="61.7" r="5" fill="#d62728" />
<circle cx="44.0" cy="78.5" r="5" fill="#d62728" />
<circle cx="44.0" cy="44.0" r="5" fill="#d62728" />
<circle cx="44.0" cy="198.0" r="5" fill="#d62728" />
<circle cx="44.0" cy="246.4" r="5" fill="#d62728" />
<circle cx="44.0" cy="174.1" r="5" fill="#d62728" />
<circle cx="44.0" cy="122.3" r="5" fill="#d62728" />
<circle cx="776.0" cy="134.7" r="5" fill="#d62728" />
<circle cx="776.0" cy="106.0" r="5" fill="#d62728" />
<circle cx="776.0" cy="148.4" r="5" fill="#d62728" />
<circle cx="776.0" cy="88.2" r="5" fill="#d62728" />
<circle cx="776.0" cy="258.4" r="5" fill="#d62728" />
<circle cx="776.0" cy="215.3" r="5" fill="#d62728" />
<circle cx="776.0" cy="234.4" r="5" fill="#d62728" />
<circle cx="776.0" cy="276.0" r="5" fill="#d62728" />
</svg>