<svg xmlns="http://www.w3.org/2000/svg" width="920" height="340">
<rect width="100%" height="100%" fill="white"/>
<text x="12" y="20" font-size="14">F_d admissibility diagnostics summary (synthetic)</text>
<rect x="46.0" y="46.0" width="159.2" height="77.3" fill="rgb(80,130,120)" />
<rect x="213.2" y="46.0" width="159.2" height="77.3" fill="rgb(80,125,120)" />
<rect x="380.4" y="46.0" width="159.2" height="77.3" fill="rgb(80,140,120)" />
<rect x="547.6" y="46.0" width="159.2" height="77.3" fill="rgb(80,245,120)" />
<rect x="714.8" y="46.0" width="159.2" height="77.3" fill="rgb(80,245,120)" />
<rect x="46.0" y="131.3" width="159.2" height="77.3" fill="rgb(80,134,120)" />
<rect x="213.2" y="131.3" width="159.2" height="77.3" fill="rgb(80,153,120)" />
<rect x="380.4" y="131.3" width="159.2" height="77.3" fill="rgb(80,125,120)" />
<rect x="547.6" y="131.3" width="159.2" height="77.3" fill="rgb(80,245,120)" />
<rect x="714.8" y="131.3" width="159.2" height="77.3" fill="rgb(80,245,120)" />
<rect x="46.0" y="216.7" width="159.2" height="77.3" fill="rgb(80,125,120)" />
<rect x="213.2" y="216.7" width="159.2" height="77.3" fill="rgb(80,145,120)" />
<rect x="380.4" y="216.7" width="159.2" height="77.3" fill="rgb(80,143,120)" />
<rect x="547.6" y="216.7" width="159.2" height="77.3" fill="rgb(80,245,120)" />
<rect x="714.8" y="216.7" width="159.2" height="77.3" fill="rgb(80,245,120)" />
<text x="8" y="62.0" font-size="12">linear_arx</text>
<text x="800" y="62.0" font-size="12">admitted=True</text>
<text x="50.0" y="88.7" font-size="11" fill="black">one-step=0.0361</text>
<text x="217.2" y="88.7" font-size="11" fill="black">rollout=0.0551</text>
<text x="384.4" y="88.7" font-size="11" fill="black">gain=0.6128</text>
<text x="551.6" y="88.7" font-size="11" fill="black">envelope=0.0000</text>
<text x="718.8" y="88.7" font-size="11" fill="black">oos=0.0000</text>
<text x="8" y="147.3" font-size="12">piecewise_affine</text>
<text x="800" y="147.3" font-size="12">admitted=True</text>
<text x="50.0" y="174.0" font-size="11" fill="black">one-step=0.0350</text>
<text x="217.2" y="174.0" font-size="11" fill="black">rollout=0.0420</text>
<text x="384.4" y="174.0" font-size="11" fill="black">gain=0.7054</text>
<text x="551.6" y="174.0" font-size="11" fill="black">envelope=0.0000</text>
<text x="718.8" y="174.0" font-size="11" fill="black">oos=0.0000</text>
<text x="8" y="232.7" font-size="12">constrained_narx</text>
<text x="800" y="232.7" font-size="12">admitted=True</text>
<text x="50.0" y="259.3" font-size="11" fill="black">one-step=0.0379</text>
<text x="217.2" y="259.3" font-size="11" fill="black">rollout=0.0457</text>
<text x="384.4" y="259.3" font-size="11" fill="black">gain=0.5993</text>
<text x="551.6" y="259.3" font-size="11" fill="black">envelope=0.0000</text>
<text x="718.8" y="259.3" font-size="11" fill="black">oos=0.0000</text>
</svg>