<svg xmlns="http://www.w3.org/2000/svg" width="920" height="360">
<rect width="100%" height="100%" fill="white"/>
<line x1="45" y1="315" x2="875" y2="315" stroke="#333"/>
<line x1="45" y1="45" x2="45" y2="315" stroke="#333"/>
<text x="14" y="22" font-size="14">Policy comparison: catastrophic-risk proxy (lower is better)</text>
<rect x="73" y="90" width="115" height="225" fill="#9c755f" />
<rect x="200" y="118" width="115" height="197" fill="#4e79a7" />
<rect x="327" y="66" width="115" height="249" fill="#59a14f" />
<rect x="488" y="90" width="115" height="225" fill="#9c755f" />
<rect x="615" y="135" width="115" height="180" fill="#4e79a7" />
<rect x="742" y="45" width="115" height="270" fill="#59a14f" />
<text x="53" y="348" font-size="12">behavior_only</text>
<text x="73" y="331" font-size="11">static-help</text>
<text x="73" y="86" font-size="11">1.030</text>
<text x="200" y="331" font-size="11">monotone-help</text>
<text x="200" y="114" font-size="11">0.901</text>
<text x="327" y="331" font-size="11">cabdi-regime-aware</text>
<text x="327" y="62" font-size="11">1.140</text>
<text x="468" y="348" font-size="12">behavior_plus_physio</text>
<text x="488" y="331" font-size="11">static-help</text>
<text x="488" y="86" font-size="11">1.030</text>
<text x="615" y="331" font-size="11">monotone-help</text>
<text x="615" y="131" font-size="11">0.823</text>
<text x="742" y="331" font-size="11">cabdi-regime-aware</text>
<text x="742" y="41" font-size="11">1.233</text>
</svg>